IKResults
version=1
nRows=17
nColumns=40
inDegrees=yes

Units are S.I. units (second, meters, Newtons, ...)
Angles are in degrees.

endheader
time	pelvis_tilt	pelvis_list	pelvis_rotation	pelvis_tx	pelvis_ty	pelvis_tz	hip_flexion_r	hip_adduction_r	hip_rotation_r	knee_angle_r	knee_angle_r_beta	ankle_angle_r	subtalar_angle_r	mtp_angle_r	hip_flexion_l	hip_adduction_l	hip_rotation_l	knee_angle_l	knee_angle_l_beta	ankle_angle_l	subtalar_angle_l	mtp_angle_l	lumbar_extension	lumbar_bending	lumbar_rotation	arm_flex_r	arm_add_r	arm_rot_r	elbow_flex_r	pro_sup_r	wrist_flex_r	wrist_dev_r	arm_flex_l	arm_add_l	arm_rot_l	elbow_flex_l	pro_sup_l	wrist_flex_l	wrist_dev_l
      0.00000000	     10.41252837	     -5.40417658	     -0.25788165	     -0.80627470	      0.90490463	      0.97840897	     18.13163709	     -0.15428621	    -25.60693179	    -24.03938060	     -0.41956634	      4.11036305	      5.97222957	     -6.35096249	    -27.91016012	      0.50420404	     12.81665881	    -15.21646099	     -0.26557734	     16.75524274	      0.98303032	     -9.22718478	    -19.82747185	      4.50897864	    -10.27594697	    -19.04454571	    -12.24335291	     -8.99257492	     18.12225584	     89.95437384	      0.00000000	      0.00000000	     13.42024634	     13.56287944	      8.11164929	     50.53124928	     89.95437384	      0.00000000	      0.00000000
      0.01000000	     10.28876285	     -5.77928327	      0.26983189	     -0.79056651	      0.90293030	      0.97936072	     18.45404012	      0.49033667	    -26.23404511	    -22.98311423	     -0.40113102	      4.49563886	      6.39400253	     -6.44315159	    -28.35270151	      1.33853782	     12.19165056	    -16.14577691	     -0.28179697	     16.31146476	      0.94339919	     -9.30461737	    -19.64529843	      5.06199707	    -10.71263374	    -19.08041615	    -12.30030715	     -9.33131929	     17.79248974	     89.95437384	      0.00000000	      0.00000000	     13.38903710	     13.62977410	      8.45046417	     52.02421965	     89.95437384	      0.00000000	      0.00000000
      0.02000000	     10.11039948	     -6.10038529	      0.72601358	     -0.77470084	      0.90105996	      0.98021754	     18.79591732	      1.08384708	    -26.48753043	    -22.24134862	     -0.38818476	      4.55121114	      6.52138438	     -6.44218045	    -28.60953627	      2.10794510	     11.58889788	    -17.31193198	     -0.30215021	     15.55097481	      0.92760649	     -9.32341752	    -19.39042621	      5.56984405	    -11.09299428	    -19.14718136	    -12.38989116	     -9.78306237	     17.60445860	     89.95437384	      0.00000000	      0.00000000	     13.30402679	     13.67547665	      8.67558101	     53.37392401	     89.95437384	      0.00000000	      0.00000000
      0.03000000	      9.86024008	     -6.31878851	      1.05566096	     -0.75836550	      0.89930417	      0.98116743	     19.14116466	      1.58164346	    -26.33220629	    -21.87856531	     -0.38185300	      4.60805631	      6.53562335	     -6.38538975	    -28.74274804	      2.71362779	     10.91038855	    -18.57297049	     -0.32415949	     14.58691497	      1.17627372	     -9.18241910	    -19.03998765	      5.95050408	    -11.38411999	    -19.21941346	    -12.49396422	    -10.14301368	     17.48079539	     89.95437384	      0.00000000	      0.00000000	     13.01339980	     13.71148088	      8.88297566	     54.75149935	     89.95437384	      0.00000000	      0.00000000
      0.04000000	      9.56807177	     -6.28997369	      1.08455648	     -0.74179762	      0.89762501	      0.98199359	     19.65379379	      1.77850079	    -25.61159587	    -22.26921163	     -0.38867106	      4.35315470	      6.35995482	     -6.23714651	    -28.79428362	      2.83587395	     10.06013788	    -19.88423720	     -0.34704541	     13.60281185	      1.21697637	     -8.94250344	    -18.59222968	      6.02954074	    -11.23404961	    -19.58522323	    -12.64073091	    -10.19523021	     17.68421217	     89.95437384	      0.00000000	      0.00000000	     12.97191670	     13.49983711	      8.96329018	     55.53998086	     89.95437384	      0.00000000	      0.00000000
      0.05000000	      9.69049126	     -6.61787935	      1.86356605	     -0.72459086	      0.89703261	      0.98262098	     19.15758758	      2.43596366	    -24.88778747	    -22.06767241	     -0.38515354	      4.45892861	      6.10830707	     -6.19383495	    -28.81599419	      3.74748400	      8.97435350	    -21.92969354	     -0.38274536	     11.71438703	      2.40318381	     -8.62790688	    -18.53495817	      6.60597279	    -11.96381905	    -19.29546222	    -12.66265337	    -10.69749863	     17.12084981	     89.95437384	      0.00000000	      0.00000000	     12.36485553	     13.51138658	      9.40272986	     56.82888306	     89.95437384	      0.00000000	      0.00000000
      0.06000000	      9.63929815	     -6.65264287	      2.04197831	     -0.70718813	      0.89629779	      0.98311662	     19.27081748	      2.70646949	    -23.50085440	    -23.20271307	     -0.40496374	      2.98426367	      5.61078892	     -5.90325730	    -28.75180225	      3.90820310	      7.73482989	    -23.80076104	     -0.41540164	     10.23603314	      2.73455570	     -8.26897664	    -18.30045212	      6.83473374	    -11.89817027	    -19.58860917	    -12.82231205	    -10.80605414	     17.41882106	     89.95437384	      0.00000000	      0.00000000	     12.05598725	     13.21406059	      9.59087224	     57.44937545	     89.95437384	      0.00000000	      0.00000000
      0.07000000	      9.85100971	     -6.86261532	      2.51023606	     -0.68984745	      0.89686023	      0.98379631	     18.67825244	      3.67634377	    -20.50406499	    -23.80065486	     -0.41539979	     -0.67728356	      0.75024296	     -5.61611939	    -28.67853940	      4.16344193	      5.62841573	    -25.98060168	     -0.45344704	      7.90708887	      6.57166036	     -6.90223360	    -18.35988520	      7.24557916	    -12.17585401	    -19.16299353	    -12.73400966	    -11.92886585	     16.84259117	     89.95437384	      0.00000000	      0.00000000	     11.55310849	     12.91707732	     10.09134725	     58.00313889	     89.95437384	      0.00000000	      0.00000000
      0.08000000	     10.09260042	     -7.10782938	      2.57541031	     -0.67208286	      0.89756938	      0.98480919	     18.58601908	      4.22059620	    -18.40663614	    -26.27406037	     -0.45856886	      0.06383450	      0.00654623	     -5.67209790	    -28.34650640	      4.53112502	      5.03473330	    -28.70568154	     -0.50100866	      4.70972530	      7.48746602	     -6.38520211	    -18.42797480	      7.58877636	    -11.85519126	    -19.11413684	    -12.84146286	    -11.80905294	     16.74445062	     89.95437384	      0.00000000	      0.00000000	     11.18434938	     12.46065986	     10.45266232	     58.07086161	     89.95437384	      0.00000000	      0.00000000
      0.09000000	     10.21661187	     -7.40928774	      2.12062552	     -0.65474251	      0.89921954	      0.98623500	     18.54937592	      5.34754484	    -14.77990192	    -28.30050079	     -0.49393692	      0.38322077	     -4.04627264	     -5.27860374	    -27.79194793	      4.44408280	      4.14425057	    -31.40544292	     -0.54812838	      0.70089082	     10.43198511	     -5.55633090	    -18.50628360	      7.88599872	    -11.11859797	    -18.68967268	    -12.96914087	    -11.85772370	     16.38895080	     89.95437384	      0.00000000	      0.00000000	     10.76398914	     11.85766172	     11.04012039	     57.80107080	     89.95437384	      0.00000000	      0.00000000
      0.10000000	     10.78189311	     -7.89446122	      2.18896565	     -0.63672728	      0.90170194	      0.98707496	     17.75224075	      6.10695628	    -13.44312037	    -30.08680051	     -0.52511373	      0.63330532	     -5.11924073	     -4.95559649	    -27.23080540	      5.10239245	      4.07819907	    -34.67666839	     -0.60522204	     -3.63226483	     11.47859252	     -5.00530240	    -18.92222413	      8.49862547	    -10.61650220	    -18.45294619	    -13.09716919	    -11.61383313	     16.33113939	     89.95437384	      0.00000000	      0.00000000	     10.44825084	     11.23842136	     11.38803682	     57.07756281	     89.95437384	      0.00000000	      0.00000000
      0.11000000	     11.23834128	     -9.19024662	      1.93479901	     -0.61912703	      0.90459957	      0.98954846	     16.36109349	      8.63869486	    -10.29846012	    -30.13627373	     -0.52597720	      0.05117494	     -9.36800576	      3.11755272	    -26.32516587	      6.72234195	      4.93358591	    -38.30947795	     -0.66862653	     -6.76354511	     11.37279654	     -3.49499659	    -19.35410789	      9.77353765	     -9.57640830	    -18.10657599	    -13.28520217	    -10.89524209	     16.34887476	     89.95437384	      0.00000000	      0.00000000	     10.01389160	     10.61238281	     11.83735266	     56.24693920	     89.95437384	      0.00000000	      0.00000000
      0.12000000	     11.72715259	     -9.82155123	      1.85833128	     -0.60150855	      0.90745398	      0.99095371	     14.87934262	      9.71898180	     -9.52114905	    -30.36825261	     -0.53002600	      0.24400287	     -9.82953303	      3.20384165	    -25.21022314	      7.68264012	      5.21950476	    -41.96202000	     -0.73237541	     -9.92144566	     11.82504216	     -3.17601372	    -19.77948664	     10.43333599	     -8.84987220	    -17.74068343	    -13.42713758	    -10.18815366	     16.48285403	     89.95437384	      0.00000000	      0.00000000	      9.64192320	      9.98173109	     12.23560921	     55.12907753	     89.95437384	      0.00000000	      0.00000000
      0.13000000	     12.09128428	    -10.22681390	      1.73517599	     -0.58426127	      0.91012101	      0.99243145	     13.25557041	     10.53035017	     -8.97313056	    -30.22176537	     -0.52746931	      0.86868353	    -10.06886391	      3.14582470	    -23.68329954	      8.40340167	      5.25960691	    -45.62143201	     -0.79624420	    -13.27775413	     12.18330267	     -2.96168408	    -20.08265730	     10.80654544	     -8.11014983	    -17.37497410	    -13.50774035	     -9.38413151	     16.79786925	     89.95437384	      0.00000000	      0.00000000	      9.31160552	      9.42420486	     12.51067695	     53.80651714	     89.95437384	      0.00000000	      0.00000000
      0.14000000	     12.50585765	    -10.18273913	      1.82255372	     -0.56743829	      0.91282428	      0.99318051	     11.48127364	     10.68065636	     -8.91437260	    -30.01876740	     -0.52392633	      1.94569151	    -10.08320592	      2.97461535	    -21.99826336	      8.58270814	      4.64362275	    -49.01083161	     -0.85540038	    -16.09593525	     13.02198158	     -2.77437784	    -20.44061899	     10.76492420	     -7.60610209	    -16.88455014	    -13.45965656	     -8.97463246	     17.06098890	     89.95437384	      0.00000000	      0.00000000	      9.09080877	      8.93816532	     12.61963471	     52.28103172	     89.95437384	      0.00000000	      0.00000000
      0.15000000	     12.77818975	    -10.11173573	      2.13959439	     -0.55089582	      0.91519434	      0.99379936	      9.88493910	     10.81803192	     -8.88202216	    -29.80104977	     -0.52012644	      3.01712880	    -10.29507368	      2.82212430	    -20.13433826	      8.70134342	      3.71155190	    -52.14267538	     -0.91006137	    -16.15931709	     14.20753213	     -2.65165843	    -20.61681358	     10.71922832	     -7.28522294	    -16.51281193	    -13.36826678	     -8.41339305	     17.63700992	     89.95437384	      0.00000000	      0.00000000	      8.83712168	      8.48694450	     12.73967860	     50.74454923	     89.95437384	      0.00000000	      0.00000000
      0.16000000	     12.80655219	     -9.77352789	      2.52792655	     -0.53489551	      0.91715282	      0.99403335	      8.73055248	     10.63731007	     -8.81991567	    -29.91162090	     -0.52205627	      3.90805730	    -10.69014310	      2.76452245	    -17.92601233	      8.49848276	      2.72765130	    -55.19135921	     -0.96327094	    -13.04870353	     14.85679121	     -2.65420915	    -20.55471951	     10.43481338	     -7.35404419	    -16.08391265	    -13.41055271	     -7.29187298	     18.51055647	     89.95437384	      0.00000000	      0.00000000	      8.44185902	      8.23363307	     12.89811585	     49.18592247	     89.95437384	      0.00000000	      0.00000000
